<svg width="800" height="651" viewBox="0 0 800 651" fill="none" xmlns="http://www.w3.org/2000/svg">
<path d="M600 0.5C544.775 0.5 494.775 22.9125 458.6 59.1L400 117.3L341.4 59.1C305.225 22.9125 255.225 0.5 200 0.5C89.55 0.5 0 90.05 0 200.5C0 255.725 35.65 307.287 71.875 343.475L364.65 636.3C384.175 655.825 415.825 655.825 435.35 636.3L727.35 344.25C763.575 308.063 800 255.725 800 200.5C800 90.05 710.45 0.5 600 0.5ZM400 530.188L142.188 272.375C124.075 254.312 100 228.137 100 200.5C100 145.275 144.775 100.5 200 100.5C227.637 100.5 252.638 111.687 270.7 129.8L364.65 223.35C384.175 242.875 415.825 242.875 435.35 223.35L529.3 129.8C547.363 111.687 572.363 100.5 600 100.5C655.225 100.5 700 145.275 700 200.5C700 228.137 675.925 254.312 657.812 272.375L400 530.188Z" fill="#394240"/>
</svg>
